<svg viewBox="0 0 28 29" fill="none" xmlns="http://www.w3.org/2000/svg">
<line x1="2.47407" y1="5.6" x2="12.0444" y2="5.6" stroke="white" stroke-width="0.8" stroke-linecap="round"/>
<line x1="2.47407" y1="8.80815" x2="6.82453" y2="8.80815" stroke="white" stroke-width="0.8" stroke-linecap="round"/>
<line x1="8.91215" y1="8.80815" x2="11.1166" y2="8.80815" stroke="white" stroke-width="0.8" stroke-linecap="round"/>
<line x1="2.47407" y1="11.6" x2="7.8963" y2="11.6" stroke="white" stroke-width="0.8" stroke-linecap="round"/>
<line x1="2.47407" y1="16.4996" x2="8.11215" y2="16.4996" stroke="white" stroke-width="0.8" stroke-linecap="round"/>
<path d="M18.6671 11.4529L17.9202 13.6482H17.3185L18.3389 11H18.7218L18.6671 11.4529ZM19.2877 13.6482L18.5389 11.4529L18.4785 11H18.8652L19.8912 13.6482H19.2877ZM19.2537 12.6624V13.0898H17.8033V12.6624H19.2537Z" fill="white"/>
<path d="M20.989 13.6482H20.3911L20.3948 13.2226H20.989C21.1374 13.2226 21.2625 13.1904 21.3643 13.1262C21.4662 13.0607 21.5429 12.9655 21.5944 12.8406C21.6472 12.7157 21.6737 12.5648 21.6737 12.3877V12.2586C21.6737 12.1228 21.6586 12.0034 21.6284 11.9003C21.5995 11.7972 21.5561 11.7105 21.4982 11.6402C21.4404 11.5699 21.3694 11.5171 21.2851 11.482C21.2009 11.4456 21.104 11.4274 20.9946 11.4274H20.3797V11H20.9946C21.1782 11 21.3461 11.0303 21.4982 11.0909C21.6516 11.1504 21.7843 11.2358 21.8962 11.3474C22.0081 11.4589 22.0943 11.5923 22.1546 11.7475C22.2162 11.9015 22.247 12.0731 22.247 12.2622V12.3877C22.247 12.5757 22.2162 12.7473 22.1546 12.9025C22.0943 13.0577 22.0081 13.191 21.8962 13.3026C21.7856 13.4129 21.6529 13.4984 21.4982 13.559C21.3448 13.6185 21.1751 13.6482 20.989 13.6482ZM20.7117 11V13.6482H20.1459V11H20.7117Z" fill="white"/>
<path d="M22.2602 26.4408L22.2602 26.441C22.2248 26.5712 22.1505 26.6863 22.048 26.7686C21.9453 26.8509 21.8199 26.8959 21.6906 26.8962L21.6905 26.8962L19.528 26.8962H19.5279C19.3986 26.8959 19.2732 26.8509 19.1705 26.7686C19.068 26.6863 18.9937 26.5712 18.9583 26.441L18.9583 26.4409L18.3624 24.2221L18.3589 24.2091H18.3602L18.1511 23.4346H17.8102C17.748 23.4346 17.689 23.4083 17.6461 23.3625C17.6032 23.3169 17.5796 23.2556 17.5796 23.1923C17.5796 23.129 17.6032 23.0677 17.6461 23.0221C17.689 22.9763 17.748 22.95 17.8102 22.95H18.1894H18.1896C18.2797 22.9503 18.3668 22.9817 18.4381 23.0389C18.5093 23.096 18.5607 23.1757 18.5853 23.2657L18.5854 23.2659L18.5854 23.2659L18.7583 23.9115L22.634 23.9115L22.634 23.9115M22.2602 26.4408L22.634 23.9115M22.2602 26.4408L22.8561 24.2197M22.2602 26.4408L22.8561 24.2197M22.634 23.9115C22.6703 23.9115 22.7059 23.9204 22.7381 23.9375C22.7702 23.9545 22.7979 23.9791 22.8191 24.0091C22.8404 24.039 22.8546 24.0736 22.861 24.11C22.8674 24.1465 22.8657 24.184 22.8561 24.2197M22.634 23.9115L22.8561 24.2197M22.8561 24.2197C22.8561 24.2197 22.8561 24.2197 22.8561 24.2197M22.8561 24.2197L22.8561 24.2197M19.528 26.4615H21.6905L19.3542 26.3221C19.365 26.3623 19.3878 26.3977 19.4192 26.4228C19.4505 26.448 19.4887 26.4616 19.528 26.4615ZM19.4025 26.3091L18.8889 24.3962H22.3296L21.816 26.3091C21.816 26.3091 21.816 26.3091 21.816 26.3092C21.8079 26.3395 21.7908 26.3656 21.768 26.3838C21.7453 26.402 21.7181 26.4116 21.6905 26.4115H21.6905H19.528H19.528C19.5004 26.4116 19.4732 26.402 19.4505 26.3838C19.4277 26.3656 19.4106 26.3395 19.4025 26.3091ZM19.7781 27.8556C19.8229 27.7843 19.8466 27.7007 19.8466 27.6154C19.8466 27.5011 19.804 27.3909 19.7273 27.3092C19.6505 27.2274 19.5456 27.1808 19.4355 27.1808C19.3534 27.1808 19.2735 27.2067 19.2058 27.2548C19.1382 27.303 19.0859 27.371 19.0552 27.4501C19.0244 27.5291 19.0164 27.6159 19.0321 27.6996C19.0477 27.7833 19.0864 27.8606 19.1436 27.9216C19.2009 27.9826 19.2743 28.0245 19.3546 28.0415C19.435 28.0586 19.5183 28.0498 19.5939 28.0165C19.6693 27.9832 19.7333 27.927 19.7781 27.8556ZM21.783 27.1808C21.701 27.1808 21.6211 27.2067 21.5534 27.2548C21.4858 27.303 21.4335 27.371 21.4028 27.4501C21.372 27.5291 21.364 27.6159 21.3797 27.6996C21.3953 27.7833 21.434 27.8606 21.4912 27.9216C21.5485 27.9826 21.6219 28.0245 21.7022 28.0415C21.7826 28.0586 21.8659 28.0498 21.9414 28.0165C22.0169 27.9832 22.0809 27.927 22.1257 27.8556C22.1705 27.7843 22.1942 27.7007 22.1942 27.6154C22.1942 27.5011 22.1516 27.3909 22.0749 27.3092C21.998 27.2274 21.8931 27.1808 21.783 27.1808Z" fill="white" stroke="white" stroke-width="0.1"/>
<path fill-rule="evenodd" clip-rule="evenodd" d="M2 1H26C26.5523 1 27 1.44772 27 2V23.552C27 24.1043 26.5523 24.552 26 24.552H23.8519V25.552H26C27.1046 25.552 28 24.6566 28 23.552V2C28 0.89543 27.1046 0 26 0H2C0.895431 0 0 0.895431 0 2V23.552C0 24.6566 0.895431 25.552 2 25.552H17.6296V24.552H2C1.44772 24.552 1 24.1043 1 23.552V2C1 1.44772 1.44772 1 2 1Z" fill="white"/>
<rect x="14.9185" y="5.4" width="9.57037" height="14.2" rx="0.6" stroke="white" stroke-width="0.8"/>
</svg>
