<svg viewBox="0 0 32 32" fill="none" xmlns="http://www.w3.org/2000/svg">
<path d="M0.7 0.7L0.5 0.8V14.8C0.5 29.5 0.5 29.2 0.8 29.8C1.1 30.3 1.6 30.9 2.1 31.1C2.8 31.5 2.4 31.4 14 31.4C26 31.4 25.2 31.4 25.9 31C26.3 30.8 26.9 30.3 27.1 29.8C27.5 29.1 27.5 29 27.5 26.2V23.7L27.3 23.6L27.2 23.4H24.9H22.8C22.6 23.4 22.5 23.3 22.5 23.1V21.7V20.2C22.5 20.1 22.5 20.1 22.6 20L26.8 15.8C31.7 10.9 31.5 11.2 31.5 10.1C31.5 9.6 31.5 9.5 31.3 9.2C31.1 8.7 30.7 8.3 30.2 8.1C29.9 8.1 29.8 8 29.3 8C28.3 8 28.4 7.9 25.3 11L23 13.3C22.8 13.5 22.5 13.3 22.5 13.1V7.3V0.8L22.3 0.7L22.2 0.5H11.5H0.8C0.8 0.5 0.7 0.6 0.7 0.7ZM21.5 8.1V14.6C21.5 14.7 21.5 14.7 21.4 14.8L19.1 17.1L16.8 19.4C16.7 19.5 16.7 19.5 16.6 19.5H9.6H2.5V20V20.5H9.1H15.7L15.3 21L14.8 21.5H8.7H2.5V22V22.5H8.1C13.5 22.5 13.7 22.5 13.6 22.6C13.5 22.8 11 27.9 11 28C11 28.2 11.3 28.5 11.5 28.5C11.6 28.5 12.8 27.9 14.3 27.2L16.9 25.9C16.9 25.9 17 25.9 17 25.8L19.3 23.5L21.2 21.6C21.4 21.4 21.7 21.5 21.7 21.8V25.1V29.1L21.8 29.5C21.9 29.7 22 30 22.2 30.2L22.4 30.5H12.8H3.2L2.8 30.3C2.2 30 2 29.8 1.7 29.3L1.5 29V15.2V1.7C1.5 1.5 1.6 1.4 1.8 1.4H11.5H21.2C21.4 1.4 21.5 1.5 21.5 1.7V8.1ZM29.8 9.1C30.1 9.2 30.3 9.4 30.4 9.7C30.6 10.2 30.5 10.8 30.2 11.1L30 11.3L29.1 10.4L28.2 9.5L28.3 9.4C28.7 9 29.3 8.9 29.8 9.1ZM27.8 10.5L28 10.7L21.6 17.1L15.2 23.5L15 23.3L14.7 23L21.1 16.6C24.6 13.1 27.5 10.2 27.5 10.2C27.5 10.2 27.7 10.4 27.8 10.5ZM29 11.7L29.2 11.9L22.8 18.3L16.4 24.7L16.1 24.4L16 24.2L22.4 17.8C25.9 14.3 28.8 11.4 28.8 11.4C28.8 11.4 28.9 11.6 29 11.7ZM14.9 24.6L15.6 25.3L15.1 25.6L14.6 25.9L14.1 25.4L13.6 24.9L13.9 24.4C14 24.1 14.2 23.9 14.2 23.9C14.2 23.9 14.5 24.2 14.9 24.6ZM26.5 26.8V29.1L26.3 29.4C26.1 29.9 25.9 30.1 25.4 30.3C25 30.5 25 30.5 24.5 30.5C24.1 30.5 23.9 30.5 23.7 30.3C23.2 30.1 23 29.9 22.8 29.4L22.5 29V26.7V24.7C22.5 24.5 22.6 24.4 22.8 24.4H24.5H26.2C26.4 24.4 26.5 24.5 26.5 24.7V26.8ZM13.4 26.1L13.6 26.3L13.1 26.6L12.6 26.9L12.8 26.4C12.9 26.1 13.1 25.9 13.1 25.9C13.2 25.9 13.3 26 13.4 26.1Z" fill="#878787"/>
<path d="M6.9999 2.40039C6.6999 2.50039 6.1999 3.00039 6.0999 3.40039C5.9999 3.80039 5.9999 12.0004 6.0999 12.3004C6.1999 12.6004 6.6999 13.2004 7.0999 13.3004C7.4999 13.4004 15.6999 13.4004 15.9999 13.3004C16.2999 13.2004 16.8999 12.7004 16.9999 12.3004C17.0999 11.9004 17.0999 3.70039 16.9999 3.40039C16.9999 3.30039 16.7999 3.00039 16.6999 2.90039C16.1999 2.40039 16.3999 2.40039 11.5999 2.40039C8.5999 2.40039 7.1999 2.40039 6.9999 2.40039ZM15.8999 3.50039L15.9999 3.70039V7.90039V12.1004L15.7999 12.2004L15.6999 12.4004H11.4999H7.2999L7.1999 12.2004L6.9999 12.1004V7.90039V3.70039L7.1999 3.60039L7.2999 3.40039H11.4999H15.6999L15.8999 3.50039Z" fill="#878787"/>
<path d="M5.2 14.7C5 14.8 5 14.8 5 16C5 17.2 5 17.2 5.2 17.3L5.3 17.5H11.5H17.7L17.8 17.3C18 17.2 18 17.2 18 16C18 14.8 18 14.8 17.8 14.7L17.7 14.5H11.5H5.3L5.2 14.7ZM17 16V16.5H11.5H6V16V15.5H11.5H17V16Z" fill="#878787"/>
<path d="M3.5 28.5V29H7H10.5V28.5V28H7H3.5V28.5Z" fill="#878787"/>
<path d="M12.4999 9.49961H10.4999L10.0999 10.5996H8.8999L10.9999 5.09961H11.9999L14.0999 10.5996H12.8999L12.4999 9.49961ZM10.7999 8.59961H12.1999L11.4999 6.49961L10.7999 8.59961Z" fill="#878787"/>
</svg>
