<svg viewBox="0 0 29 29" fill="none" xmlns="http://www.w3.org/2000/svg">
<path d="M6.68361 3.61676C6.63237 3.59612 6.57518 3.59612 6.52393 3.61676L3.9622 4.64631L4.9941 5.06081L7.63568 3.99934L6.68361 3.61676ZM8.21344 4.23182L5.57187 5.29329L6.60377 5.70779L9.24535 4.64631L8.21344 4.23182ZM9.60849 4.96506L6.8184 6.08648V9.50338L9.60849 8.38195V4.96549V4.96506ZM6.38915 9.50381V6.08605L3.59906 4.96506V8.38239L6.38915 9.50381ZM6.36468 3.21607C6.51817 3.15439 6.68938 3.15439 6.84286 3.21607L9.90295 4.44618C9.94274 4.46221 9.97684 4.48983 10.0009 4.5255C10.0249 4.56117 10.0377 4.60325 10.0377 4.64631V8.38239C10.0377 8.46857 10.0119 8.55277 9.96381 8.62411C9.91568 8.69545 9.84739 8.75067 9.76774 8.78265L6.68361 10.0223C6.63237 10.0429 6.57518 10.0429 6.52393 10.0223L3.44024 8.78265C3.3605 8.75074 3.29212 8.69555 3.24392 8.6242C3.19571 8.55285 3.1699 8.46862 3.16981 8.38239V4.64631C3.16982 4.60325 3.18266 4.56117 3.20669 4.5255C3.23071 4.48983 3.26481 4.46221 3.30459 4.44618L6.36468 3.21607Z" fill="white"/>
<path d="M21.4761 3.61676C21.4248 3.59612 21.3676 3.59612 21.3164 3.61676L18.7547 4.64631L19.7866 5.06081L22.4281 3.99934L21.4761 3.61676ZM23.0059 4.23182L20.3643 5.29329L21.3962 5.70779L24.0378 4.64631L23.0059 4.23182ZM24.4009 4.96506L21.6109 6.08648V9.50338L24.4009 8.38195V4.96549V4.96506ZM21.1816 9.50381V6.08605L18.3915 4.96506V8.38239L21.1816 9.50381ZM21.1571 3.21607C21.3106 3.15439 21.4818 3.15439 21.6353 3.21607L24.6954 4.44618C24.7352 4.46221 24.7693 4.48983 24.7933 4.5255C24.8173 4.56117 24.8302 4.60325 24.8302 4.64631V8.38239C24.8301 8.46857 24.8044 8.55277 24.7563 8.62411C24.7081 8.69545 24.6398 8.75067 24.5602 8.78265L21.4761 10.0223C21.4248 10.0429 21.3676 10.0429 21.3164 10.0223L18.2327 8.78265C18.153 8.75074 18.0846 8.69555 18.0364 8.6242C17.9882 8.55285 17.9624 8.46862 17.9623 8.38239V4.64631C17.9623 4.60325 17.9751 4.56117 17.9991 4.5255C18.0232 4.48983 18.0573 4.46221 18.097 4.44618L21.1571 3.21607Z" fill="white"/>
<path d="M6.68361 18.4092C6.63237 18.3886 6.57518 18.3886 6.52393 18.4092L3.9622 19.4388L4.9941 19.8533L7.63568 18.7918L6.68361 18.4092ZM8.21344 19.0243L5.57187 20.0857L6.60377 20.5002L9.24535 19.4388L8.21344 19.0243ZM9.60849 19.7575L6.8184 20.8789V24.2958L9.60849 23.1744V19.7579V19.7575ZM6.38915 24.2963V20.8785L3.59906 19.7575V23.1748L6.38915 24.2963ZM6.36468 18.0085C6.51817 17.9468 6.68938 17.9468 6.84286 18.0085L9.90295 19.2386C9.94274 19.2547 9.97684 19.2823 10.0009 19.318C10.0249 19.3536 10.0377 19.3957 10.0377 19.4388V23.1748C10.0377 23.261 10.0119 23.3452 9.96381 23.4166C9.91568 23.4879 9.84739 23.5431 9.76774 23.5751L6.68361 24.8147C6.63237 24.8353 6.57518 24.8353 6.52393 24.8147L3.44024 23.5751C3.3605 23.5432 3.29212 23.488 3.24392 23.4167C3.19571 23.3453 3.1699 23.2611 3.16981 23.1748V19.4388C3.16982 19.3957 3.18266 19.3536 3.20669 19.318C3.23071 19.2823 3.26481 19.2547 3.30459 19.2386L6.36468 18.0085Z" fill="white"/>
<path d="M21.4761 18.4092C21.4248 18.3886 21.3676 18.3886 21.3164 18.4092L18.7547 19.4388L19.7866 19.8533L22.4281 18.7918L21.4761 18.4092ZM23.0059 19.0243L20.3643 20.0857L21.3962 20.5002L24.0378 19.4388L23.0059 19.0243ZM24.4009 19.7575L21.6109 20.8789V24.2958L24.4009 23.1744V19.7579V19.7575ZM21.1816 24.2963V20.8785L18.3915 19.7575V23.1748L21.1816 24.2963ZM21.1571 18.0085C21.3106 17.9468 21.4818 17.9468 21.6353 18.0085L24.6954 19.2386C24.7352 19.2547 24.7693 19.2823 24.7933 19.318C24.8173 19.3536 24.8302 19.3957 24.8302 19.4388V23.1748C24.8301 23.261 24.8044 23.3452 24.7563 23.4166C24.7081 23.4879 24.6398 23.5431 24.5602 23.5751L21.4761 24.8147C21.4248 24.8353 21.3676 24.8353 21.3164 24.8147L18.2327 23.5751C18.153 23.5432 18.0846 23.488 18.0364 23.4167C17.9882 23.3453 17.9624 23.2611 17.9623 23.1748V19.4388C17.9623 19.3957 17.9751 19.3536 17.9991 19.318C18.0232 19.2823 18.0573 19.2547 18.097 19.2386L21.1571 18.0085Z" fill="white"/>
<rect x="0.35" y="0.35" width="11.9792" height="11.9792" rx="0.65" stroke="white" stroke-width="0.7"/>
<rect x="15.1424" y="0.35" width="11.9792" height="11.9792" rx="0.65" stroke="white" stroke-width="0.7"/>
<rect x="0.35" y="15.1425" width="11.9792" height="11.9792" rx="0.65" stroke="white" stroke-width="0.7"/>
<path d="M27.6179 27.0178L27.6178 27.018C27.5912 27.1052 27.5355 27.1813 27.4598 27.2353C27.3841 27.2893 27.2923 27.3183 27.1982 27.3185L27.1981 27.3185L25.6558 27.3185H25.6557C25.5616 27.3183 25.4698 27.2893 25.3942 27.2353C25.3185 27.1813 25.2628 27.1052 25.2361 27.018L25.2361 27.0178L24.8111 25.6112L24.8089 25.6041V25.6011L24.6641 25.124H24.4307C24.3841 25.124 24.339 25.1065 24.3052 25.0746C24.2714 25.0426 24.2519 24.9986 24.2519 24.9521C24.2519 24.9056 24.2714 24.8616 24.3052 24.8296C24.339 24.7977 24.3841 24.7802 24.4307 24.7802H24.7011H24.7013V24.7802C24.7674 24.7804 24.8319 24.8009 24.8852 24.8389C24.9385 24.8769 24.9779 24.9306 24.9969 24.9923L24.9969 24.9925L24.9969 24.9925L25.1166 25.3898L27.871 25.3898L27.8711 25.3898M27.6179 27.0178L27.8711 25.3898M27.6179 27.0178L28.0429 25.6097M27.6179 27.0178L28.0429 25.6097M27.8711 25.3898C27.8983 25.3898 27.9253 25.3957 27.9499 25.4073C27.9745 25.4189 27.9962 25.4359 28.0131 25.4571C28.03 25.4783 28.0417 25.5031 28.0469 25.5297C28.0521 25.5563 28.0507 25.5837 28.0429 25.6097M27.8711 25.3898L28.0429 25.6097M25.6558 27.0247H27.1981L25.5319 26.9363C25.5396 26.9618 25.5558 26.9842 25.5782 27.0001C25.6006 27.0161 25.6278 27.0247 25.6558 27.0247ZM25.5797 26.9218L25.2209 25.7336H27.6331L27.2742 26.9218C27.2698 26.9364 27.2604 26.9497 27.2467 26.9594C27.233 26.9692 27.216 26.9747 27.1982 26.9747H27.1981H25.6558H25.6558C25.638 26.9747 25.6209 26.9692 25.6072 26.9594C25.5936 26.9497 25.5841 26.9364 25.5797 26.9218C25.5797 26.9218 25.5797 26.9218 25.5797 26.9218ZM25.8448 27.9205C25.879 27.8721 25.8974 27.8149 25.8974 27.7562C25.8974 27.6773 25.8643 27.6023 25.8063 27.5474C25.7485 27.4927 25.6705 27.4623 25.5898 27.4623C25.5296 27.4623 25.4705 27.4792 25.42 27.5112C25.3695 27.5431 25.3297 27.5888 25.306 27.6428C25.2824 27.6968 25.2762 27.7565 25.2883 27.814C25.3003 27.8716 25.3301 27.924 25.3733 27.9649C25.4165 28.0058 25.4712 28.0333 25.5303 28.0445C25.5895 28.0556 25.6508 28.0499 25.7066 28.028C25.7625 28.0061 25.8107 27.9688 25.8448 27.9205ZM27.2641 27.4623C27.2039 27.4623 27.1448 27.4792 27.0943 27.5112C27.0438 27.5431 27.004 27.5888 26.9803 27.6428C26.9567 27.6968 26.9505 27.7565 26.9626 27.814C26.9747 27.8716 27.0044 27.924 27.0476 27.9649C27.0908 28.0058 27.1455 28.0333 27.2046 28.0445C27.2638 28.0556 27.3251 28.0499 27.381 28.028C27.4368 28.0061 27.485 27.9688 27.5192 27.9205C27.5533 27.8721 27.5717 27.8149 27.5717 27.7562C27.5717 27.6773 27.5386 27.6023 27.4806 27.5474C27.4228 27.4927 27.3449 27.4623 27.2641 27.4623Z" fill="white" stroke="white" stroke-width="0.1"/>
<path fill-rule="evenodd" clip-rule="evenodd" d="M15.7924 15.4925H26.4717C26.6374 15.4925 26.7717 15.6268 26.7717 15.7925V24.3019H27.4717V15.7925C27.4717 15.2402 27.024 14.7925 26.4717 14.7925H15.7924C15.2402 14.7925 14.7924 15.2402 14.7924 15.7925V26.4717C14.7924 27.024 15.2402 27.4717 15.7924 27.4717H24.3019V26.7717H15.7924C15.6268 26.7717 15.4924 26.6374 15.4924 26.4717V15.7925C15.4924 15.6268 15.6268 15.4925 15.7924 15.4925Z" fill="white"/>
</svg>
