<svg viewBox="0 0 28 30" fill="none" xmlns="http://www.w3.org/2000/svg">
<line x1="6.25" y1="15.8" x2="6.25" y2="18.3" stroke="white" stroke-width="0.5" stroke-linecap="round"/>
<line x1="22.75" y1="15.75" x2="22.75" y2="18.25" stroke="white" stroke-width="0.5" stroke-linecap="round"/>
<line x1="14.25" y1="12.25" x2="14.25" y2="15.75" stroke="white" stroke-width="0.5" stroke-linecap="round"/>
<line x1="6.25" y1="15.75" x2="22.75" y2="15.75" stroke="white" stroke-width="0.5" stroke-linecap="round"/>
<path d="M14.3163 1.35078C14.2416 1.32074 14.1584 1.32074 14.0838 1.35078L10.3538 2.84986L11.8563 3.45338L15.7025 1.90783L14.3163 1.35078ZM16.5438 2.24634L12.6975 3.79189L14.2 4.39541L18.0463 2.84986L16.5438 2.24634ZM18.575 3.31397L14.5125 4.94681V9.92196L18.575 8.28912V3.31459V3.31397ZM13.8875 9.92259V4.94618L9.825 3.31397V8.28974L13.8875 9.92259ZM13.8519 0.767356C14.0754 0.677549 14.3246 0.677549 14.5481 0.767356L19.0038 2.55846C19.0617 2.58179 19.1113 2.62201 19.1463 2.67395C19.1813 2.72588 19.2 2.78715 19.2 2.84986V8.28974C19.1999 8.41524 19.1624 8.53783 19.0924 8.64171C19.0223 8.74558 18.9229 8.82599 18.8069 8.87254L14.3163 10.6775C14.2416 10.7075 14.1584 10.7075 14.0838 10.6775L9.59375 8.87254C9.47766 8.82609 9.37809 8.74572 9.3079 8.64184C9.23771 8.53795 9.20013 8.41531 9.2 8.28974V2.84986C9.20002 2.78715 9.21872 2.72588 9.25369 2.67395C9.28867 2.62201 9.33832 2.58179 9.39625 2.55846L13.8519 0.767356Z" fill="white"/>
<path d="M5.11625 20.6508C5.04163 20.6207 4.95837 20.6207 4.88375 20.6508L1.15375 22.1499L2.65625 22.7534L6.5025 21.2078L5.11625 20.6508ZM7.34375 21.5463L3.4975 23.0919L5 23.6954L8.84625 22.1499L7.34375 21.5463ZM9.375 22.614L5.3125 24.2468V29.222L9.375 27.5891V22.6146V22.614ZM4.6875 29.2226V24.2462L0.625 22.614V27.5897L4.6875 29.2226ZM4.65188 20.0674C4.87535 19.9775 5.12465 19.9775 5.34812 20.0674L9.80375 21.8585C9.86168 21.8818 9.91133 21.922 9.94631 21.9739C9.98129 22.0259 9.99999 22.0872 10 22.1499V27.5897C9.99992 27.7152 9.96243 27.8378 9.89236 27.9417C9.82229 28.0456 9.72285 28.126 9.60688 28.1725L5.11625 29.9775C5.04163 30.0075 4.95837 30.0075 4.88375 29.9775L0.39375 28.1725C0.277657 28.1261 0.178089 28.0457 0.107901 27.9418C0.0377136 27.838 0.000128956 27.7153 0 27.5897L0 22.1499C1.4525e-05 22.0872 0.0187148 22.0259 0.0536919 21.9739C0.0886689 21.922 0.13832 21.8818 0.19625 21.8585L4.65188 20.0674Z" fill="white"/>
<path d="M23.1163 20.6508C23.0416 20.6207 22.9584 20.6207 22.8837 20.6508L19.1537 22.1499L20.6562 22.7534L24.5025 21.2078L23.1163 20.6508ZM25.3438 21.5463L21.4975 23.0919L23 23.6954L26.8463 22.1499L25.3438 21.5463ZM27.375 22.614L23.3125 24.2468V29.222L27.375 27.5891V22.6146V22.614ZM22.6875 29.2226V24.2462L18.625 22.614V27.5897L22.6875 29.2226ZM22.6519 20.0674C22.8754 19.9775 23.1246 19.9775 23.3481 20.0674L27.8038 21.8585C27.8617 21.8818 27.9113 21.922 27.9463 21.9739C27.9813 22.0259 28 22.0872 28 22.1499V27.5897C27.9999 27.7152 27.9624 27.8378 27.8924 27.9417C27.8223 28.0456 27.7229 28.126 27.6069 28.1725L23.1163 29.9775C23.0416 30.0075 22.9584 30.0075 22.8837 29.9775L18.3938 28.1725C18.2777 28.1261 18.1781 28.0457 18.1079 27.9418C18.0377 27.838 18.0001 27.7153 18 27.5897V22.1499C18 22.0872 18.0187 22.0259 18.0537 21.9739C18.0887 21.922 18.1383 21.8818 18.1963 21.8585L22.6519 20.0674Z" fill="white"/>
</svg>
