<svg viewBox="0 0 31 28" fill="none" xmlns="http://www.w3.org/2000/svg">
<rect x="0.4" y="0.4" width="18.2" height="27.2" rx="0.6" stroke="white" stroke-width="0.8"/>
<path fill-rule="evenodd" clip-rule="evenodd" d="M20.0514 24H24.1943C24.7465 24 25.1943 23.5523 25.1943 23V3.66667C25.1943 3.11438 24.7465 2.66667 24.1943 2.66667H20.0514V3.46667H24.1943C24.3047 3.46667 24.3943 3.55621 24.3943 3.66667V23C24.3943 23.1105 24.3047 23.2 24.1943 23.2H20.0514V24Z" fill="white"/>
<path fill-rule="evenodd" clip-rule="evenodd" d="M26.48 20H29.3371C29.8894 20 30.3371 19.5523 30.3371 19V7.66666C30.3371 7.11438 29.8894 6.66666 29.3371 6.66666H26.48V7.46666H29.3371C29.4476 7.46666 29.5371 7.55621 29.5371 7.66666V19C29.5371 19.1105 29.4476 19.2 29.3371 19.2H26.48V20Z" fill="white"/>
<path d="M9.62787 5.92756C9.5458 5.89328 9.4542 5.89328 9.37213 5.92756L5.26912 7.63762L6.92188 8.32608L11.1528 6.56301L9.62787 5.92756ZM12.0781 6.94915L7.84725 8.71222L9.5 9.40069L13.7309 7.63762L12.0781 6.94915ZM14.3125 8.16704L9.84375 10.0297V15.705L14.3125 13.8424V8.16776V8.16704ZM9.15625 15.7058V10.029L4.6875 8.16704V13.8431L9.15625 15.7058ZM9.11706 5.26202C9.36289 5.15957 9.63711 5.15957 9.88294 5.26202L14.7841 7.30521C14.8478 7.33182 14.9025 7.3777 14.9409 7.43694C14.9794 7.49619 15 7.56608 15 7.63762V13.8431C14.9999 13.9863 14.9587 14.1261 14.8816 14.2446C14.8045 14.3631 14.6951 14.4548 14.5676 14.5079L9.62787 16.5669C9.5458 16.6012 9.4542 16.6012 9.37213 16.5669L4.43312 14.5079C4.30542 14.4549 4.1959 14.3633 4.11869 14.2448C4.04148 14.1263 4.00014 13.9864 4 13.8431V7.63762C4.00002 7.56608 4.02059 7.49619 4.05906 7.43694C4.09754 7.3777 4.15215 7.33182 4.21587 7.30521L9.11706 5.26202Z" fill="white"/>
<line x1="4.35" y1="20.3907" x2="14.65" y2="20.3907" stroke="white" stroke-width="0.7" stroke-linecap="round"/>
<line x1="4.35" y1="22.4648" x2="7.65" y2="22.4648" stroke="white" stroke-width="0.7" stroke-linecap="round"/>
<line x1="9.35" y1="22.4648" x2="13.65" y2="22.4648" stroke="white" stroke-width="0.7" stroke-linecap="round"/>
</svg>
